<svg width="50" height="50" viewBox="0 0 50 50" fill="none" xmlns="http://www.w3.org/2000/svg">
<rect width="50" height="50" rx="8" fill="#1A1A1A"/>
<path d="M33.2924 32.6523C33.1675 32.5585 33.1832 32.2692 33.6048 31.3624C33.7689 31.0028 34.1439 30.401 34.7925 29.8302C34.8705 30.0647 34.9176 30.2913 34.9095 30.5025C34.9019 31.9096 33.9019 32.4335 33.2924 32.6523ZM27.9483 33.8718C27.7764 33.958 27.6201 34.0204 27.5499 33.9737C27.4951 33.9423 27.6201 33.8251 27.6201 33.8251C27.6201 33.8251 28.4874 32.8947 28.8311 32.4648C29.0265 32.2148 29.2607 31.9254 29.5108 31.5971V31.6909C29.5108 32.8164 28.4326 33.567 27.9483 33.8718ZM21.018 30.5572C20.6196 31.5345 19.7758 34.0438 19.2679 33.9032C18.8303 33.7859 18.5647 31.8862 19.1819 30.01C19.4944 29.0639 20.1585 27.9384 20.5492 27.5005C21.1822 26.7969 21.8696 26.5623 22.0416 26.8516C22.2447 27.2269 21.2681 29.9475 21.018 30.5572ZM12.619 36.2718C11.4704 37.5305 9.85315 38.0073 9.1656 37.6008C8.42337 37.1709 8.71235 35.318 10.1266 33.9814C10.9861 33.1683 12.1033 32.4178 12.8378 31.9565C13.0018 31.855 13.2518 31.7064 13.5487 31.5266C13.5956 31.4954 13.6269 31.4797 13.6269 31.4797C13.6816 31.4485 13.7441 31.4093 13.8066 31.3702C14.33 33.2777 13.83 34.9508 12.619 36.2718ZM39.4335 27.2269C38.0349 27.2349 36.8239 27.571 35.8082 28.0713C35.4332 27.3287 35.058 26.6797 34.9957 26.1952C34.9255 25.6323 34.8396 25.2882 34.9255 24.616C35.0111 23.9436 35.4021 22.9899 35.4021 22.9117C35.3942 22.8413 35.3159 22.4974 34.5113 22.4896C33.7066 22.4817 33.0112 22.6459 32.9329 22.857C32.8548 23.068 32.6985 23.5527 32.5972 24.0531C32.4566 24.7879 30.9876 27.3912 30.1515 28.7593C29.8779 28.2276 29.6438 27.7586 29.5967 27.3832C29.5265 26.8204 29.4405 26.4764 29.5265 25.8042C29.6124 25.1318 30.0031 24.1781 30.0031 24.1C29.9952 24.0296 29.9172 23.6856 29.1125 23.6778C28.3077 23.67 27.6124 23.8342 27.5342 24.0452C27.4561 24.2563 27.3702 24.7566 27.1983 25.2413C27.0341 25.726 25.0809 30.0726 24.573 31.2061C24.3152 31.7846 24.0886 32.2458 23.9244 32.5585C23.7604 32.8712 23.9168 32.582 23.9011 32.6133C23.7604 32.879 23.6824 33.0276 23.6824 33.0276V33.0354C23.5729 33.2309 23.4558 33.4184 23.4009 33.4184C23.3618 33.4184 23.2838 32.8947 23.4166 32.1756C23.7057 30.6667 24.4088 28.3137 24.4011 28.2277C24.4011 28.1887 24.5338 27.7742 23.9478 27.5631C23.3776 27.3521 23.1745 27.7039 23.1274 27.7039C23.0806 27.7039 23.0415 27.8291 23.0415 27.8291C23.0415 27.8291 23.6744 25.1789 21.8305 25.1789C20.6742 25.1789 19.0803 26.4376 18.2912 27.5867C17.7912 27.8603 16.7286 28.4387 15.6035 29.0564C15.1738 29.291 14.7284 29.541 14.3065 29.7677L14.2207 29.6739C11.9861 27.2895 7.85299 25.6009 8.02489 22.3958C8.0874 21.2309 8.49368 18.1586 15.9631 14.4376C22.0807 11.3887 26.9796 12.225 27.831 14.0857C29.0421 16.7437 25.2137 21.6843 18.8539 22.3958C16.4318 22.6694 15.1582 21.7313 14.838 21.3795C14.502 21.012 14.4551 20.9964 14.3301 21.0668C14.127 21.1762 14.252 21.5046 14.3301 21.7C14.5176 22.1925 15.2989 23.068 16.6272 23.5058C17.7913 23.8889 20.6353 24.1 24.0731 22.771C27.9249 21.2778 30.9329 17.1345 30.0499 13.6715C29.1516 10.1456 23.3073 8.9886 17.7835 10.9509C14.4941 12.1236 10.9314 13.9529 8.36867 16.3528C5.32156 19.1984 4.83715 21.6843 5.04029 22.7163C5.75136 26.3984 10.822 28.7983 12.8534 30.5729C12.7518 30.6275 12.658 30.6823 12.5721 30.7292C11.5564 31.2295 7.68892 33.2543 6.7201 35.3962C5.62627 37.8196 6.892 39.563 7.73581 39.7976C10.3454 40.5246 13.0175 39.2191 14.4629 37.0693C15.9004 34.9194 15.7286 32.1286 15.0645 30.8544L15.041 30.8075L15.8379 30.3384C16.3536 30.0335 16.8615 29.7521 17.3068 29.5097C17.0568 30.1898 16.877 30.9949 16.7834 32.1675C16.674 33.5435 17.2365 35.3259 17.9788 36.0294C18.3069 36.3342 18.6976 36.3421 18.9398 36.3421C19.7992 36.3421 20.1899 35.6307 20.6196 34.7787C21.1508 33.7389 21.6196 32.535 21.6196 32.535C21.6196 32.535 21.0337 35.7948 22.6354 35.7948C23.2214 35.7948 23.8073 35.0366 24.073 34.6458V34.6536C24.073 34.6536 24.0886 34.6301 24.1198 34.5753C24.1526 34.5268 24.1838 34.4773 24.2136 34.4269V34.4112C24.448 34.0047 24.9714 33.0745 25.7528 31.5345C26.7605 29.5487 27.7296 27.0628 27.7296 27.0628C27.7296 27.0628 27.8233 27.6726 28.1123 28.6733C28.2842 29.2674 28.6592 29.9162 28.9482 30.5494C28.7139 30.8777 28.5733 31.0654 28.5733 31.0654L28.581 31.0732C28.3936 31.3235 28.1825 31.5892 27.964 31.855C27.1669 32.8087 26.2138 33.8955 26.0888 34.2082C25.9403 34.5755 25.9715 34.8491 26.2606 35.0681C26.4715 35.2244 26.8466 35.2556 27.245 35.2244C27.964 35.1775 28.464 34.9977 28.7139 34.8882C29.1045 34.7474 29.5501 34.5364 29.9798 34.2237C30.7609 33.6453 31.2374 32.8244 31.1908 31.73C31.1672 31.1281 30.9719 30.534 30.7297 29.9711C30.8001 29.8694 30.8703 29.7677 30.9407 29.6584C32.1751 27.8524 33.1285 25.8669 33.1285 25.8669C33.1285 25.8669 33.2222 26.4767 33.511 27.4773C33.6595 27.9855 33.9567 28.5406 34.2222 29.0878C33.0659 30.0337 32.3393 31.1281 32.0892 31.8473C31.6283 33.1763 31.9876 33.7783 32.6674 33.9191C32.9721 33.9815 33.4097 33.8408 33.7378 33.7002C34.1439 33.5672 34.6362 33.3405 35.0894 33.0044C35.8708 32.4259 36.6207 31.6206 36.5817 30.534C36.5581 30.0337 36.4254 29.5412 36.2457 29.0721C37.2303 28.6656 38.5036 28.4311 40.1211 28.6265C43.5979 29.033 44.2855 31.2063 44.1527 32.1131C44.0199 33.0201 43.2933 33.5204 43.0511 33.6767C42.8087 33.8252 42.7306 33.88 42.7539 33.9894C42.7853 34.1536 42.8948 34.1458 43.1056 34.1146C43.3947 34.0676 44.9338 33.3718 44.9964 31.6991C45.0901 29.5489 43.0511 27.2035 39.4335 27.2269Z" fill="#D0469D"/>
</svg>
